# xmcd
#
# Track frame offsets:
#	150
#	12002
#	26874
#	39544
#	50080
#	63902
#	75752
#	88867
#	99714
#	111506
#	122958
#	137471
#	150067
#	163459
#	179548
#	194142
#	209755
#	226258
#	239692
#	258063
#	271769
#	283860
#
# Disc length: 3954 seconds
#
# Revision: 1
# Processed by: cddbd v1.5.2PL0 Copyright (c) Steve Scherf et al.
# Submitted via: audiograbber 1.83.01
#
DISCID=3d0f7016
DTITLE=Denise La Salle -  Trapped by a thing called love - On the loose
DYEAR=1900
DGENRE=R&B
TTITLE0=Trapped by a Thing Called Love
TTITLE1=Now Run and Tell That
TTITLE2=Heartbreaker of the Year
TTITLE3=Good Goody Better
TTITLE4=Catch Me If You Can
TTITLE5=Hung Up, Strung Up
TTITLE6=Do Me Right
TTITLE7=The Deeper I Go (The Better It Gets)
TTITLE8=If You Should Loose Me
TTITLE9=Keep It Coming
TTITLE10=It's Too Late
TTITLE11=A Man Size Job
TTITLE12=What It Takes To Get A Good Woman
TTITLE13=Harper Valley PTA
TTITLE14=What Am I Doing Wrong
TTITLE15=Breaking Up Somebody's Home
TTITLE16=There Ain't Enough Hate Around
TTITLE17=Your Man And Your Best Friend
TTITLE18=Lean On Me
TTITLE19=Making A Good Thing Better
TTITLE20=I'm Over You
TTITLE21=I'm Satisfied
EXTD=
EXTT0=
EXTT1=
EXTT2=
EXTT3=
EXTT4=
EXTT5=
EXTT6=
EXTT7=
EXTT8=
EXTT9=
EXTT10=
EXTT11=
EXTT12=
EXTT13=
EXTT14=
EXTT15=
EXTT16=
EXTT17=
EXTT18=
EXTT19=
EXTT20=
EXTT21=
PLAYORDER=
